<?xml version="1.0" encoding="UTF-8"?>
<svg id="Layer_2" data-name="Layer 2" xmlns="http://www.w3.org/2000/svg" viewBox="0 0 607.27 433.05">
  <defs>
    <style>
      .cls-1 {
        fill: #4a6d9b;
      }

      .cls-1, .cls-2, .cls-3, .cls-4, .cls-5, .cls-6, .cls-7, .cls-8, .cls-9, .cls-10, .cls-11, .cls-12, .cls-13 {
        stroke-width: 0px;
      }

      .cls-2 {
        fill: #223045;
      }

      .cls-3 {
        fill: #c8dbf2;
      }

      .cls-4 {
        fill: #9fbee5;
      }

      .cls-5 {
        fill: #0d111a;
      }

      .cls-6 {
        fill: #2b415d;
      }

      .cls-7 {
        fill: #354e6f;
      }

      .cls-8 {
        fill: #37527c;
      }

      .cls-9 {
        fill: #40618a;
      }

      .cls-10 {
        fill: #79a0d5;
      }

      .cls-11 {
        fill: #eaf1fb;
      }

      .cls-12 {
        fill: #172436;
      }

      .cls-13 {
        fill: #6995c5;
      }
    </style>
  </defs>
  <g id="Warstwa_1" data-name="Warstwa 1">
    <g>
      <path class="cls-10" d="m373.1,82.77c34.35-14.78,68.7-29.56,103.04-44.36,27.78-11.97,55.53-24,83.33-35.92,2.63-1.13,5.5-1.68,8.26-2.5,5.55,24.77,11.1,49.55,16.65,74.32-1.45,2.05-3.55,3.12-5.89,3.76-20.39,5.52-40.69,11.35-61.04,16.99-28.24,7.82-56.53,15.44-84.69,23.57-11.92,3.44-24.07,6.07-35.89,9.93-3.71,1.21-7.68,2.2-11.65.53-3.79-2.96-4.97-7.44-6.34-11.64-2.94-9.05-4.59-18.44-6.52-27.75-.49-2.35-.57-4.73.73-6.93Z"/>
      <path class="cls-6" d="m607.27,176.5c-54.23,9.47-108.46,18.94-162.69,28.41-2.05-.11-3.43-1.37-4.37-2.96-7.45-12.63-16.06-24.54-23.1-37.42-.63-1.16-.94-2.44-.75-3.81.47-.88,1.12-1.57,1.94-2.12,3.51-2.02,7.46-2.61,11.31-3.47,33.46-7.53,66.82-15.53,100.42-22.3,18.85-3.8,37.86-6.86,56.62-11.18,2.86-.66,5.75-.9,8.47.66,4.05,18.06,8.09,36.13,12.14,54.19Z"/>
      <path class="cls-1" d="m595.13,122.31c-59.69,11.75-119.08,24.95-178.42,38.34-.53.04-1.16.14-1.53-.16-11.37-9.12-22.2-18.79-30.49-30.96.06-.38.12-.76.18-1.13,16.94-2.78,33.12-8.55,49.54-13.21,11.37-3.22,22.85-6.14,34.21-9.41,38.42-11.08,77.14-21.07,115.75-31.47,3.58,16,7.17,32,10.75,48Z"/>
      <path class="cls-11" d="m373.1,82.77c3.49,15.33,7.01,30.65,11.78,45.64,0,0,.33.33.33.33-.31,2.31.31,4.69-.54,6.97-5.78,15.45-8.91,31.82-16.11,46.79-12.03,10.74-25.78,19.19-38.62,28.86-9.65,7.27-18.71,15.47-29.81,20.7-2.19.34-4.21-.29-5.91-1.56-14.83-11.09-30.69-20.71-45.38-32-1.7-3.07-.1-5.61,1.38-8.11,13.94-23.59,26.47-47.97,40.11-71.73,24.93-10.89,49.85-21.78,74.78-32.66,2.63-1.15,5.32-2.17,7.99-3.24Z"/>
      <path class="cls-2" d="m417.05,162.21c10.19,13.58,18.15,28.6,27.53,42.71-25.93,28.79-51.89,57.56-77.77,86.39-4.4,4.9-10.86,4.97-16.29,7.41-5.98,2.7-12.3,5-18.7,6.35-12.01,2.53-16.3,10.83-17.94,21.64-7.78-6.86-17.69-7.21-27.15-8.92-3.73-.67-6.47-2.15-5.55-6.68-1.15-1.96.7-4.47-1.16-6.3-2.75-3.01-4.89-6.56-8.15-9.13-1.69-1.91-3.26-3.9-4.96-5.8-1.59-2.58-4.86-4.54-3.1-8.36,5.26-4.96,12.19-6.86,18.48-9.86,7.76-3.7,15.62-7.17,23.22-11.18,26.45-13.18,51.79-28.44,78.11-41.87,1.65-.84,3.08-2.04,4.32-3.42,9.06-15.41,15.42-32.18,24.03-47.81,1.18-2.14,1.55-5.27,5.09-5.17Z"/>
      <path class="cls-4" d="m293.2,117.08c2-1.18-2.85,3.22-3.65,5.39-1.11,3-3.42,5.54-4.9,8.27-11.09,20.34-22.66,40.43-34.09,60.59-.77,1.37-1.55,2.68-1.46,4.23.05.93-.46,1.81-1.25,2.31-.22.14-.46.27-.71.38-22.15,8.31-44.61,15.79-66.83,23.91-2.48.91-7.55,5.59-10.24,5.32-1.32-.24-.33-4.67-.85-5.89-4-9.26-7.78-18.59-5.82-28.97.13-.7.58-1.3,1.19-1.66l128.62-73.89Z"/>
      <path class="cls-12" d="m173.75,223.61c23.42-8.3,46.84-16.6,70.26-24.92,1.39-.49,2.67-1.9,4.18-.28.93,3.1-1.6,4.79-2.94,6.89-5.63,8.85-11.2,17.75-16.87,26.57-1.86,2.89-3.81,5.68-7.14,7.11-12.42,4.74-24.74,9.8-38.14,11.12-20.1,5.12-40.32,9.59-61.16,10.32-5.29-5.8-5.43-13.05-5.71-20.27.27-.97.8-1.78,1.57-2.42,4.06-2.7,8.86-3.07,13.4-4.19,10.16-2.51,20.63-3.87,30.28-8.18,3.98-1.78,8.3-.33,12.26-1.74Z"/>
      <path class="cls-13" d="m164.4,316.3c3.43-9.06,10.98-15.15,16.56-22.65,9.07-12.2,18.73-23.97,28.14-35.92.49-.62,1.11-.9,1.9-.79,7.21,5.05,14.4,10.12,20.36,16.72.31.72.45,1.46.46,2.24-8.21,24.78-24.66,42.54-47.07,55.24-11.47.52-14.88-1.98-20.35-14.84Z"/>
      <path class="cls-3" d="m50.79,232.9c16.4-6.92,32.77-13.88,49.21-20.72,4.35-1.81,8.86-3.22,13.3-4.81,6.05,10,6.44,20.7,3.9,31.76l.22.4c-.84,1.31-1.41,2.88-2.77,3.76-15.52,10.07-31.77,18.16-50.83,18.59-8.52-7.78-12.09-17.79-13.03-28.99Z"/>
      <path class="cls-8" d="m117.2,239.13c-1.42-10.57-1.47-21.31-3.9-31.76,16.59-5.84,33.69-9.85,50.67-14.29,1.85,8.37,3.67,16.74,5.55,25.1.55,2.44-.43,7.06,3.3,7.06-18.15,7.74-36.45,9.9-55.62,13.89Z"/>
      <path class="cls-12" d="m257.42,372.01c3.53,11.06,5.86,22.09,3.18,33.89-1.98,8.69-6.58,12.44-15.39,12.18-1.93-1.97-.87-2.95.97-3.88,4.22-2.15,4.83-5.88,4.87-10.04.07-6.89-.48-13.74-1.45-20.53-1.07-7.58-2.51-8.34-9.94-7.07-4.08.7-8.12,2.77-12.36.59-3.67-10.66-3.76-21.79-4.43-32.85,1.94-5.92,1.49-12.71,6.41-17.55,9.19-.62,17.74,1.36,25.52,6.39,1.94,9.72-1.04,19.19-1.61,28.79-.26,4.33.34,7.75,4.23,10.09Z"/>
      <path class="cls-6" d="m281.17,311.11c.51,3.01,2.17,4.26,5.32,4.55,4.42.41,8.76,2.06,13.16,2.18,6.7.19,11.36,2.89,14.23,8.86.35,13.54-.37,27.1,5.18,40.11,2.1,4.94,1.28,10.84.2,16.34-1.32,6.71-5.32,9.56-11.99,9.01-.31-.46-.69-1.13-.45-1.4,8.45-9.61,3.07-19.75,1.19-29.75-.86-4.56-3.47-5.08-7.5-3.58-4.37,1.62-8.69,3.74-13.58,3.39-4.08-4.13-1.61-9.45-2.22-14.12-1.52-11.81-4.22-23.56-3.54-35.61Z"/>
      <path class="cls-11" d="m50.79,232.9c4.36,9.33,7.21,19.35,12.72,28.16-.06,1.52-.82,2.64-1.98,3.55-13.19,7.48-27.28,12.46-42.22,15.04-2.88.5-5.75.89-8.51-.51-3.76-3.58-8.45-6.58-8.07-12.78,16.95-9.82,32.87-21.11,48.06-33.46Z"/>
      <path class="cls-9" d="m197.02,390.37c-3.84-16.55-7.68-33.11-11.52-49.66.54-1.23,1.26-2.63,2.67-2.61,9.62.17,19.39-1.59,28.75,2.19.57.71.97,1.5,1.22,2.37,1.92,9.43,2.53,19.03,4.05,28.52.42,2.6.46,5.18-.77,7.62-6.83,6.58-14.19,12.08-24.39,11.58Z"/>
      <path class="cls-6" d="m62.19,262.56c.44-.5,2.58,3.01,1.63-.67,19.57-5.54,35.89-14.48,53.59-22.36,1.51,6.96,3.02,13.93,4.53,20.89-17.74,7.78-36.32,11.81-55.64,12.55-3.34-2.69-4.55-6.23-4.11-10.41Z"/>
      <path class="cls-4" d="m197.02,390.37c8.19-2.71,15.6-6.96,22.93-11.4,2.47.12,3.69,1.8,4.55,3.79,4.71,10.87,7.71,22.33,10.94,33.67,2.15,7.54-2.33,12.39-8.75,15.66-9.31-14.32-17.65-29.33-29.67-41.73Z"/>
      <path class="cls-2" d="m226.69,432.1c9.11-7.69,7.02-16.39,3.28-26.03-3.47-8.97-4.79-18.75-10.02-27.1.67-8.86-1.75-17.43-2.57-26.16-.34-3.59-1.93-7.07-.7-10.76,3.34-2.93,5.84-.59,8.39,1.36-1.09,7.26,1.5,14.22,1.83,21.39.19,4.03.95,8.13,1.03,12.24,8.44,7.42,12.1,16.92,11.45,27.94-.14,2.32.12,4.67-.28,6.98,1.82,12.71.39,15.91-8.94,20.67-1.46.75-2.44.43-3.47-.53Z"/>
      <path class="cls-4" d="m227.93,377.05c3.06-.73,6.11-1.48,9.18-2.17,13.8-3.11,13.79-2.75,15.45,12.25.4,3.63.67,7.28.88,10.92.44,7.54,1.66,15.73-6.25,19.28-1.49.67-3.27.42-4.47-.69s-1.95-2.58-3.53-4.57"/>
      <path class="cls-9" d="m257.42,372.01c-5.21,1.11-7.27-.57-6.56-6.22,1.32-10.65,2.1-21.36,3.1-32.05,4.72-13.61,8.94-27.46,18.97-38.45,3.94,2,7.26,4.47,7.1,9.53-.14.22-.29.44-.43.66-12.83,20.37-21.65,42.07-22.17,66.53Z"/>
      <path class="cls-9" d="m63.82,261.89c1.63-.67,1.54,7.44,2.48,11.08-18.55,10.11-38.06,14.72-59.15,10.31.03-2.69.86-4.92,3.58-6.01,13.99-.87,25.58-4.25,37.8-8.71,4.66-1.7,10.74-4.66,15.28-6.68Z"/>
      <path class="cls-3" d="m286.93,360.84c4.89-4.36,11.75-4.06,17.19-7.26,2.45-1.45,4.49-.18,5.11,2.83,1.55,7.43,3.07,14.87,4.78,22.27,1.48,6.45-2.77,9.87-6.75,13.5-6.1-10.89-12.12-21.82-20.33-31.34Z"/>
      <path class="cls-6" d="m210.45,257c-.5.16-.95.4-1.35.73-8.67-2.54-17.33-5.08-26-7.62,4.71-4.14,11.17-3.48,16.61-6.09,7.17-3.44,15.27-4.91,22.98-7.23-1.21,8.47-6.01,14.77-12.23,20.21Z"/>
      <path class="cls-7" d="m216.18,340.72c-10.23.07-20.45-2.14-30.68,0-.42-1.43-.85-2.85-1.27-4.28.41-.75,1-1.29,1.78-1.65,9.69-2.59,18.84-6.34,26.91-12.45,2.06-1.56,4.11-3.39,7.08-2.5,2.45,7.64,1.41,14.65-3.83,20.88Z"/>
      <path class="cls-5" d="m185.92,335.99c-.56.15-1.12.3-1.68.45-11.97-2-18.08-8.2-19.83-20.13,5.18,6.81,9.48,14.92,20.17,13.54,2.29,1.65,2.73,3.7,1.35,6.15Z"/>
      <path class="cls-12" d="m9.03,277.82c-1.19,2-.83,3.49-2.03,5.49-3.11-3.15-4.96-7.1-6.65-11.03-.89-2.07-.05-4.52,2.23-5.89,2.67,3.64,3.78,7.79,6.44,11.43Z"/>
      <path class="cls-7" d="m417.05,162.21c-9.41,15.89-16.17,33.11-24.7,49.43-.7,1.35-1.67,2.56-2.51,3.83-.51.19-1.22.43-1.47.14-8.77-10.23-16.74-20.96-20.66-34.13,5.83-17.58,11.66-35.16,17.49-52.74,9.72,11.41,20.91,21.38,31.51,31.91.11.52.23,1.03.34,1.55Z"/>
      <path class="cls-9" d="m367.72,181.48c7.75,11.09,13.54,23.45,22.13,33.99-3.65,6.94-11.31,7.87-17.26,11.21-19.83,11.15-39.93,21.83-59.96,32.63-2.05,1.1-4.34,1.75-6.51,2.61-6.63-8.26-6.5-18.43-7.95-28.15.24-.99.67-1.89,1.28-2.7,22.76-16.53,45.52-33.06,68.27-49.59Z"/>
      <path class="cls-10" d="m299.44,231.07c-.02.39-.08.78-.17,1.16-2.72,4.87-7.79,6.97-12.17,9.63-16.34,9.96-32.37,20.41-48.72,30.34-2.22,1.35-4.33,3.12-7.23,1.9-7.42-5.07-14.98-9.98-20.7-17.11,4.08-6.74,8.15-13.48,12.23-20.21,8.5-12.79,17.01-25.58,25.51-38.37.48-.1.95-.22,1.42-.35,15.02,7.77,27.79,18.89,41.85,28.09,2.62,1.72,4.88,3.98,7.98,4.91Z"/>
      <path class="cls-2" d="m231.16,274.11c19.95-12.43,39.88-24.87,59.85-37.26,2.68-1.66,5.51-3.08,8.27-4.61,2.28,9.89,4.56,19.79,6.84,29.69-10.94,7.64-23.85,11.28-35.47,17.53-2.29,1.23-4.67,2.28-7.01,3.41-6.55,6.33-14.52,9.58-23.44,10.77-5.58-4.74-8.25-10.96-9.08-18.1-.03-.48-.01-.95.05-1.43Z"/>
      <path class="cls-6" d="m272.92,295.29c-6.32,12.82-12.64,25.63-18.97,38.45-7.81-3.07-15.87-5.11-24.22-6-3.22-6.93.35-12.66,3.25-18.52,11.9-6.31,22.87-14.33,35.44-19.42,2.33,1.15,3.66,3.12,4.49,5.49Z"/>
      <path class="cls-5" d="m268.42,289.8c-10.16,9.08-22.79,14.07-34.41,20.74-3.06-2.71-.24-5.61-.28-8.42,1.15-3.64,2.41-7.22,6.12-9.16,7.92-3.37,15.85-6.73,23.77-10.09,1.6,2.31,3.2,4.62,4.8,6.93Z"/>
      <path class="cls-6" d="m239.86,292.96c-1.52,3-3.04,6.01-4.56,9.01-3.06,7.81-7.69,14.3-15.36,18.22-8.57,5.94-17.15,11.77-27.22,15.09-2.37.78-4.45,1.2-6.79.71-.45-2.05-.9-4.1-1.35-6.15,21.37-13.09,36.83-31.23,46.54-54.31,2.92,5.81,5.83,11.62,8.75,17.42Z"/>
      <path class="cls-2" d="m219.93,320.18c5.12-6.07,10.24-12.15,15.36-18.22-.43,2.86-.85,5.71-1.28,8.57-2.51,5.47-3.94,11.2-4.28,17.2-2.7,4.89-2.94,10.5-4.66,15.68-2.8-.45-5.59-.91-8.39-1.36-.16-.45-.32-.9-.51-1.34,1.95-6.72,3.29-13.55,3.75-20.54Z"/>
      <polygon class="cls-10" points="263.62 282.86 306.11 261.92 380.99 222.94 272.92 295.29 263.62 282.86"/>
    </g>
  </g>
</svg>